<svg viewBox="0 0 100 100">
	<defs>
		<clipPath id="upperleft">
			<path d="M50 0 l0 16.67 l-20 33.33 l-10 0 z" />
			<path d="M50 25 l0 25 l-15 0 z" />
		</clipPath>
		<clipPath id="upperright">
			<path d="M50 0 l0 16.67 l20 33.33 l10 0 z" />
			<path d="M50 25 l0 25 l15 0 z" />
		</clipPath>
		<clipPath id="lowerleft">
			<path d="M50 100 l0 -16.67 l-20 -33.33 l-10 0 z" />
			<path d="M50 75 l0 -25 l-15 0 z" />
		</clipPath>
		<clipPath id="lowerright">
			<path d="M50 100 l0 -16.67 l20 -33.33 l10 0 z" />
			<path d="M50 75 l0 -25 l15 0 z" />
		</clipPath>
	</defs>
	<rect x="0" y="0" width="100" height="100" fill="#212225" />
	<rect x="0" y="0" width="100" height="100" clip-path="url(#upperleft)" fill="#c9a732" />
	<rect x="0" y="0" width="100" height="100" clip-path="url(#upperright)" fill="#bb9c2f" />
	<rect x="0" y="0" width="100" height="100" clip-path="url(#lowerleft)" fill="#ae902b" />
	<rect x="0" y="0" width="100" height="100" clip-path="url(#lowerright)" fill="#a08528" />
</svg>